<svg xmlns="http://www.w3.org/2000/svg" viewBox="0 0 100 100" width="100" height="100" role="img"><rect width="100" height="100" rx="18" fill="#FFFFFF"/><rect width="100" height="100" rx="18" fill="#FFFFFF"/><path d="M50 18 a32 32 0 1 0 0 64 a9 9 0 0 1 0 -18 a7 7 0 0 0 0 -14 a22 22 0 0 1 0 -32 Z" fill="#C9D1D9" opacity=".3"/><circle cx="36" cy="32" r="7" fill="#E76F51"/><circle cx="26" cy="48" r="7" fill="#FFD166"/><circle cx="30" cy="66" r="7" fill="#5FB06B"/><circle cx="46" cy="74" r="7" fill="#6CB4EE"/><circle cx="56" cy="28" r="7" fill="#B39DDB"/><path d="M78 76 l14 -40 l6 2 l-12 42 Z" fill="#A9744F"/><path d="M78 76 l8 2 l-10 6 Z" fill="#3D4A5C"/></svg>