<svg xmlns="http://www.w3.org/2000/svg" viewBox="0 0 100 100" width="100" height="100" role="img"><rect width="100" height="100" rx="18" fill="#CFE9F7"/><path d="M0 74 h100 v26 H0 Z" fill="#A9DC8E"/><g stroke="#3D4A5C" stroke-width="2.6" stroke-linecap="round"><path d="M32 50 l-12 -6"/><path d="M30 60 l-14 2"/><path d="M34 68 l-12 8"/><path d="M68 50 l12 -6"/><path d="M70 60 l14 2"/><path d="M66 68 l12 8"/></g><circle cx="50" cy="58" r="22" fill="#E76F51"/><path d="M50 36 v44" stroke="#3D4A5C" stroke-width="2.6"/><g fill="#3D4A5C"><circle cx="40" cy="52" r="4.4"/><circle cx="60" cy="52" r="4.4"/><circle cx="42" cy="68" r="3.6"/><circle cx="58" cy="68" r="3.6"/></g><path d="M36 40 a16 16 0 0 1 28 0 Z" fill="#3D4A5C"/><path d="M42 30 l-5 -9 M58 30 l5 -9" stroke="#3D4A5C" stroke-width="2.2" stroke-linecap="round"/><circle cx="37" cy="20" r="2.4" fill="#3D4A5C"/><circle cx="63" cy="20" r="2.4" fill="#3D4A5C"/></svg>